# xmcd
#
# Track frame offsets: 
#        150
#        12495
#        25047
#        34283
#        45620
#        58424
#        70601
#        80583
#        92151
#        102883
#        114483
#        125801
#        138749
#        150547
#        159548
#        171756
#        186345
#        206017
#        218564
#        232134
#        245935
#        262357
#
# Disc length: 3640 seconds
#
# Revision: 1
# Processed by: cddbd v1.5.2PL0 Copyright (c) Steve Scherf et al.
# Submitted via: ExactAudioCopyFreeDBPlugin 1.0
#
DISCID=4e0e3616
DTITLE=Jimmy Reed - I'm Jimmy Reed [Disc 2]
DYEAR=2011
DGENRE=Blues
TTITLE0=Jimmy's Boogie
TTITLE1=I Found My Baby
TTITLE2=Shoot My Baby
TTITLE3=Rockin' With Reed
TTITLE4=You Upset My Mind
TTITLE5=Untitled Instrumental
TTITLE6=State Street Boogie
TTITLE7=My Baby (Down In Virginia)
TTITLE8=You Know I Love You
TTITLE9=You Gonna Need My Help
TTITLE10=Come Love
TTITLE11=Meet Me
TTITLE12=Sugar, Sugar
TTITLE13=I'm A Love You
TTITLE14=Tell Me You Love Me
TTITLE15=Baby, What's Wrong (Alternate)
TTITLE16=Looking For You, Baby
TTITLE17=There'll Be A Day
TTITLE18=Help Yourself
TTITLE19=Heading For A Fall (Things Ain't What They Used To Be)
TTITLE20=Don't Think I'm Through
TTITLE21=Left Handed Woman
EXTD=YEAR: 2011
EXTT0=
EXTT1=
EXTT2=
EXTT3=
EXTT4=
EXTT5=
EXTT6=
EXTT7=
EXTT8=
EXTT9=
EXTT10=
EXTT11=
EXTT12=
EXTT13=
EXTT14=
EXTT15=
EXTT16=
EXTT17=
EXTT18=
EXTT19=
EXTT20=
EXTT21=
PLAYORDER=
